# xmcd
#
# Track frame offsets: 
#        150
#        18021
#        42690
#        58406
#        77943
#        94389
#        109866
#        126741
#        144046
#        162460
#        182005
#        195613
#        227193
#        244553
#        260232
#        276683
#        291247
#        304881
#        321110
#        336969
#
# Disc length: 4733 seconds
#
# Revision: 2
# Processed by: cddbd v1.5.2PL0 Copyright (c) Steve Scherf et al.
# Submitted via: ExactAudioCopy v0.95b4
#
DISCID=40127b14
DTITLE=Various Artist - Mastermix Pro Disc 64 (Nov 2005)
DYEAR=2005
DGENRE=Pop
TTITLE0=Anastacia - Pieces Of A Dream
TTITLE1=Black Eyed Peas - My Humps (Album Version)
TTITLE2=Darkness - One Way Ticket To Hell
TTITLE3=Destiny's Child - Stand Up For Love
TTITLE4=Hillary Duff - Wake Up
TTITLE5=Goldfrapp - Number 1
TTITLE6=Happy Mondays - Playground Superstar (Radio Mix)
TTITLE7=Jamiroquai - (Don't) Give Hate A Chance
TTITLE8=Kaiser Chiefs - Modern Way
TTITLE9=Mario feat. Juvenile - Boom (Remix)
TTITLE10=McFly - I Wanna Hold You
TTITLE11=Nomad - Devotion (S.A.S. Remix)
TTITLE12=Pussycat Dolls feat. Will.I.Am - Beep
TTITLE13=Rihanna - If It's Lovin' That You Want
TTITLE14=Sahara - I Remember
TTITLE15=Simply Red - Perfect Love
TTITLE16=Ashlee Simspon - Boyfriend
TTITLE17=U2 - All Because Of You
TTITLE18=Simon Webbe - No Worries
TTITLE19=Westlife - You Raise Me Up
EXTD=
EXTT0=
EXTT1=
EXTT2=
EXTT3=
EXTT4=
EXTT5=
EXTT6=
EXTT7=
EXTT8=
EXTT9=
EXTT10=
EXTT11=
EXTT12=
EXTT13=
EXTT14=
EXTT15=
EXTT16=
EXTT17=
EXTT18=
EXTT19=
PLAYORDER=
